<?xml version="1.0" standalone="no"?>
<!DOCTYPE svg PUBLIC "-//W3C//DTD SVG 20010904//EN"
 "http://www.w3.org/TR/2001/REC-SVG-20010904/DTD/svg10.dtd">
<svg version="1.0" xmlns="http://www.w3.org/2000/svg"
 width="2268.000000pt" height="2267.000000pt" viewBox="0 0 2268.000000 2267.000000"
 preserveAspectRatio="xMidYMid meet">

<g transform="translate(0.000000,2267.000000) scale(0.100000,-0.100000)"
fill="#000000" stroke="none">
<path d="M10900 22000 c-1288 -74 -2402 -351 -3493 -867 -773 -365 -1481 -834
-2157 -1427 -266 -233 -708 -691 -965 -1001 -1043 -1253 -1723 -2764 -1980
-4400 -21 -133 -75 -711 -75 -808 0 -18 11 -39 29 -58 l29 -29 1007 0 c663 0
1013 3 1025 10 27 14 35 51 69 321 49 374 105 665 192 984 451 1660 1506 3092
2960 4017 1165 742 2486 1112 3869 1085 609 -12 1124 -88 1713 -253 1391 -388
2547 -1141 3503 -2280 449 -534 799 -1125 1074 -1814 287 -719 442 -1403 491
-2170 13 -208 7 -761 -10 -955 -120 -1308 -524 -2423 -1257 -3461 -286 -406
-671 -840 -982 -1109 -53 -45 -95 -90 -99 -104 -8 -33 23 -57 95 -71 80 -17
219 -72 340 -135 388 -203 658 -551 760 -979 24 -101 26 -129 26 -316 0 -173
-4 -221 -22 -307 -130 -600 -587 -1053 -1195 -1185 -147 -32 -456 -32 -603 0
-309 67 -525 183 -739 397 -231 230 -371 501 -426 826 -18 103 -20 150 -16
274 3 93 11 171 21 205 29 98 30 119 11 140 -24 27 -56 25 -115 -5 -100 -50
-438 -175 -665 -245 -475 -146 -838 -217 -1413 -276 -299 -30 -322 -37 -347
-98 -21 -49 -27 -538 -18 -1364 l8 -704 24 -19 c32 -26 107 -25 466 6 605 53
992 116 1520 250 492 125 885 259 1392 476 163 70 204 79 235 55 17 -12 926
-1429 1891 -2946 264 -415 496 -772 516 -794 20 -21 56 -48 81 -60 l45 -21
1255 -1 c690 -1 1273 1 1295 5 36 6 40 10 40 36 0 31 -20 62 -2148 3385 -667
1040 -993 1559 -1000 1587 -8 33 -7 51 7 87 15 38 49 74 209 218 1160 1040
2011 2308 2532 3773 326 916 515 2023 515 3010 0 746 -98 1533 -281 2260 -550
2176 -1900 4080 -3789 5340 -366 244 -660 413 -1045 601 -1059 515 -2141 805
-3355 899 -236 19 -837 27 -1050 15z"/>
<path d="M2305 11940 c-43 -17 -48 -34 -42 -143 13 -208 112 -750 206 -1117
58 -229 159 -566 230 -770 59 -169 68 -187 96 -203 15 -9 646 -13 2572 -17
2433 -5 2553 -6 2570 -23 17 -17 18 -138 23 -2595 4 -1911 8 -2583 16 -2602
32 -69 80 -91 449 -213 449 -148 906 -261 1378 -342 170 -29 215 -31 243 -11
19 14 19 67 22 3976 1 2721 -1 3975 -8 4001 -8 27 -20 44 -40 54 -26 13 -466
15 -3862 14 -2108 0 -3842 -4 -3853 -9z"/>
</g>
</svg>
